<mxfile host="Electron" modified="2024-02-16T06:13:01.964Z" agent="Mozilla/5.0 (Windows NT 10.0; Win64; x64) AppleWebKit/537.36 (KHTML, like Gecko) draw.io/22.0.3 Chrome/114.0.5735.289 Electron/25.8.4 Safari/537.36" etag="Y4pg8nlswu2lR44Z13hM" version="22.0.3" type="device">
  <diagram name="Page-1" id="F-23IJMWkBfm9dlKQ4zn">
    <mxGraphModel dx="1416" dy="868" grid="1" gridSize="10" guides="1" tooltips="1" connect="1" arrows="1" fold="1" page="1" pageScale="1" pageWidth="850" pageHeight="1100" math="0" shadow="0">
      <root>
        <mxCell id="0" />
        <mxCell id="1" parent="0" />
        <mxCell id="QeE4LsFwniENW4QbhyC0-4" value="" style="verticalLabelPosition=bottom;html=1;verticalAlign=top;align=center;strokeColor=black;fillColor=#00BEF2;shape=mxgraph.azure.laptop;pointerEvents=1;" parent="1" vertex="1">
          <mxGeometry x="204.77" y="274" width="50" height="30" as="geometry" />
        </mxCell>
        <mxCell id="QeE4LsFwniENW4QbhyC0-5" value="" style="verticalLabelPosition=bottom;html=1;verticalAlign=top;align=center;strokeColor=none;fillColor=#00BEF2;shape=mxgraph.azure.computer;pointerEvents=1;" parent="1" vertex="1">
          <mxGeometry x="480" y="235" width="50" height="45" as="geometry" />
        </mxCell>
        <mxCell id="QeE4LsFwniENW4QbhyC0-7" value="" style="image;points=[];aspect=fixed;html=1;align=center;shadow=0;dashed=0;image=img/lib/allied_telesis/computer_and_terminals/Personal_Computer.svg;" parent="1" vertex="1">
          <mxGeometry x="490.15" y="409.2" width="45.6" height="61.800000000000004" as="geometry" />
        </mxCell>
        <mxCell id="QeE4LsFwniENW4QbhyC0-9" value="" style="html=1;verticalLabelPosition=bottom;align=center;labelBackgroundColor=#ffffff;verticalAlign=top;strokeWidth=2;strokeColor=#0080F0;shadow=0;dashed=0;shape=mxgraph.ios7.icons.wifi;pointerEvents=1" parent="1" vertex="1">
          <mxGeometry x="214.92000000000002" y="247" width="29.7" height="21" as="geometry" />
        </mxCell>
        <mxCell id="QeE4LsFwniENW4QbhyC0-10" value="" style="html=1;verticalLabelPosition=bottom;align=center;labelBackgroundColor=#ffffff;verticalAlign=top;strokeWidth=2;strokeColor=#0080F0;shadow=0;dashed=0;shape=mxgraph.ios7.icons.wifi;pointerEvents=1" parent="1" vertex="1">
          <mxGeometry x="490.15" y="200" width="29.7" height="21" as="geometry" />
        </mxCell>
        <mxCell id="QeE4LsFwniENW4QbhyC0-11" value="" style="html=1;verticalLabelPosition=bottom;align=center;labelBackgroundColor=#ffffff;verticalAlign=top;strokeWidth=2;strokeColor=#0080F0;shadow=0;dashed=0;shape=mxgraph.ios7.icons.wifi;pointerEvents=1" parent="1" vertex="1">
          <mxGeometry x="331" y="350" width="29.7" height="21" as="geometry" />
        </mxCell>
        <mxCell id="QeE4LsFwniENW4QbhyC0-12" value="" style="html=1;verticalLabelPosition=bottom;align=center;labelBackgroundColor=#ffffff;verticalAlign=top;strokeWidth=2;strokeColor=#0080F0;shadow=0;dashed=0;shape=mxgraph.ios7.icons.wifi;pointerEvents=1" parent="1" vertex="1">
          <mxGeometry x="189.99999999999997" y="420" width="29.7" height="21" as="geometry" />
        </mxCell>
        <mxCell id="QeE4LsFwniENW4QbhyC0-13" value="" style="html=1;verticalLabelPosition=bottom;align=center;labelBackgroundColor=#ffffff;verticalAlign=top;strokeWidth=2;strokeColor=#0080F0;shadow=0;dashed=0;shape=mxgraph.ios7.icons.wifi;pointerEvents=1" parent="1" vertex="1">
          <mxGeometry x="490.15000000000003" y="380" width="29.7" height="21" as="geometry" />
        </mxCell>
        <mxCell id="QeE4LsFwniENW4QbhyC0-18" value="" style="endArrow=none;dashed=1;html=1;dashPattern=1 3;strokeWidth=2;rounded=0;exitX=1.006;exitY=0.756;exitDx=0;exitDy=0;exitPerimeter=0;entryX=-0.067;entryY=0.054;entryDx=0;entryDy=0;entryPerimeter=0;" parent="1" source="QeE4LsFwniENW4QbhyC0-11" target="QeE4LsFwniENW4QbhyC0-13" edge="1">
          <mxGeometry width="50" height="50" relative="1" as="geometry">
            <mxPoint x="380" y="480" as="sourcePoint" />
            <mxPoint x="430" y="430" as="targetPoint" />
          </mxGeometry>
        </mxCell>
        <mxCell id="QeE4LsFwniENW4QbhyC0-19" value="" style="endArrow=none;dashed=1;html=1;dashPattern=1 3;strokeWidth=2;rounded=0;exitX=1.024;exitY=0.143;exitDx=0;exitDy=0;exitPerimeter=0;entryX=0.017;entryY=0.845;entryDx=0;entryDy=0;entryPerimeter=0;" parent="1" source="QeE4LsFwniENW4QbhyC0-12" target="QeE4LsFwniENW4QbhyC0-11" edge="1">
          <mxGeometry width="50" height="50" relative="1" as="geometry">
            <mxPoint x="260" y="450" as="sourcePoint" />
            <mxPoint x="330" y="380" as="targetPoint" />
          </mxGeometry>
        </mxCell>
        <mxCell id="QeE4LsFwniENW4QbhyC0-20" value="" style="endArrow=none;dashed=1;html=1;dashPattern=1 3;strokeWidth=2;rounded=0;exitX=0.943;exitY=0.756;exitDx=0;exitDy=0;exitPerimeter=0;" parent="1" source="QeE4LsFwniENW4QbhyC0-9" edge="1">
          <mxGeometry width="50" height="50" relative="1" as="geometry">
            <mxPoint x="240" y="200" as="sourcePoint" />
            <mxPoint x="330" y="350" as="targetPoint" />
          </mxGeometry>
        </mxCell>
        <mxCell id="QeE4LsFwniENW4QbhyC0-21" value="" style="endArrow=none;dashed=1;html=1;dashPattern=1 3;strokeWidth=2;rounded=0;exitX=1.153;exitY=-0.018;exitDx=0;exitDy=0;exitPerimeter=0;entryX=-0.135;entryY=0.143;entryDx=0;entryDy=0;entryPerimeter=0;" parent="1" source="QeE4LsFwniENW4QbhyC0-11" target="QeE4LsFwniENW4QbhyC0-10" edge="1">
          <mxGeometry width="50" height="50" relative="1" as="geometry">
            <mxPoint x="470" y="430" as="sourcePoint" />
            <mxPoint x="520" y="380" as="targetPoint" />
          </mxGeometry>
        </mxCell>
        <mxCell id="QeE4LsFwniENW4QbhyC0-23" value="" style="sketch=0;pointerEvents=1;shadow=0;dashed=0;html=1;strokeColor=none;fillColor=#434445;aspect=fixed;labelPosition=center;verticalLabelPosition=bottom;verticalAlign=top;align=center;outlineConnect=0;shape=mxgraph.vvd.flash_drive;" parent="1" vertex="1">
          <mxGeometry x="335.35" y="380" width="21" height="50" as="geometry" />
        </mxCell>
        <mxCell id="QeE4LsFwniENW4QbhyC0-24" value="Wireless usb Flash Drive&amp;nbsp;" style="text;html=1;strokeColor=none;fillColor=none;align=center;verticalAlign=middle;whiteSpace=wrap;rounded=0;" parent="1" vertex="1">
          <mxGeometry x="315.85" y="441" width="60" height="30" as="geometry" />
        </mxCell>
        <mxCell id="QeE4LsFwniENW4QbhyC0-25" value="Admin" style="text;html=1;strokeColor=none;fillColor=none;align=center;verticalAlign=middle;whiteSpace=wrap;rounded=0;" parent="1" vertex="1">
          <mxGeometry x="199.77" y="304" width="60" height="30" as="geometry" />
        </mxCell>
        <mxCell id="QeE4LsFwniENW4QbhyC0-26" value="User&amp;nbsp;" style="text;html=1;strokeColor=none;fillColor=none;align=center;verticalAlign=middle;whiteSpace=wrap;rounded=0;" parent="1" vertex="1">
          <mxGeometry x="475" y="280" width="60" height="30" as="geometry" />
        </mxCell>
        <mxCell id="QeE4LsFwniENW4QbhyC0-27" value="User" style="text;html=1;strokeColor=none;fillColor=none;align=center;verticalAlign=middle;whiteSpace=wrap;rounded=0;" parent="1" vertex="1">
          <mxGeometry x="522.8000000000001" y="459.99999999999994" width="60" height="30" as="geometry" />
        </mxCell>
        <mxCell id="QeE4LsFwniENW4QbhyC0-28" value="User&amp;nbsp;" style="text;html=1;strokeColor=none;fillColor=none;align=center;verticalAlign=middle;whiteSpace=wrap;rounded=0;" parent="1" vertex="1">
          <mxGeometry x="211.16" y="490" width="60" height="30" as="geometry" />
        </mxCell>
        <mxCell id="QeE4LsFwniENW4QbhyC0-29" value="" style="sketch=0;html=1;aspect=fixed;strokeColor=none;shadow=0;fillColor=#3B8DF1;verticalAlign=top;labelPosition=center;verticalLabelPosition=bottom;shape=mxgraph.gcp2.phone_android" parent="1" vertex="1">
          <mxGeometry x="190" y="450" width="43.68" height="78" as="geometry" />
        </mxCell>
      </root>
    </mxGraphModel>
  </diagram>
</mxfile>
